<svg width="1448" height="761" viewBox="0 0 1448 761" fill="none" xmlns="http://www.w3.org/2000/svg">
<path d="M135.75 0C61.276 0 0.353523 42.6081 0 94.7947C0 94.7947 0 94.8773 0 94.9599C0 95.0424 0 95.0424 0 95.125V665.875C0 718.144 61.1582 761 135.75 761H1312.25C1386.84 761 1448 718.144 1448 665.875V95.125C1448 95.0424 1448 95.0424 1448 94.9599C1448 94.8773 1448 94.7947 1448 94.7947C1447.65 42.6081 1386.72 0 1312.25 0H135.75ZM214.23 42.2778H1233.89L724 291.32L214.23 42.2778ZM113.832 44.755L724 342.846L1334.29 44.755C1365.16 51.2783 1387.43 70.9309 1387.67 94.8773C1387.55 99.3363 1381.07 108.254 1371.64 115.438C1362.1 122.705 1352.79 127.246 1352.79 127.246L1352.67 127.411L724 439.21L95.3314 127.411L95.2135 127.246C95.2135 127.246 85.9043 122.705 76.3594 115.438C66.9323 108.254 60.4512 99.3363 60.3333 94.8773C60.569 70.9309 82.8405 51.2783 113.832 44.755ZM60.3333 161.762L60.569 161.927L60.8047 162.01V162.092L150.833 206.682V718.722H135.75C93.7995 718.722 60.3333 695.271 60.3333 665.875V161.762ZM1387.67 161.762V665.875C1387.67 695.271 1354.2 718.722 1312.25 718.722H1297.17V206.682L1387.2 162.092V162.01L1387.67 161.762ZM211.167 236.574L724 490.901L1236.83 236.574V718.722H211.167V236.574Z" fill="white"/>
</svg>
